<?xml version="1.0" encoding="UTF-8"?>
<svg version="1.1" xmlns="http://www.w3.org/2000/svg" width="500" height="500">
<path d="M0 0 C165 0 330 0 500 0 C500 165 500 330 500 500 C335 500 170 500 0 500 C0 335 0 170 0 0 Z " fill="#FEFEFE" transform="translate(0,0)"/>
<path d="M0 0 C0.86189941 0.3923584 1.72379883 0.7847168 2.61181641 1.18896484 C13.45191271 6.20173765 23.49223075 11.75661591 33 19 C33.84304688 19.63292969 34.68609375 20.26585937 35.5546875 20.91796875 C61.3240422 40.88304388 81.19083348 66.56228911 93 97 C93.31155029 97.79237061 93.62310059 98.58474121 93.9440918 99.40112305 C96.66182143 106.54285288 98.52452416 113.73650435 100.1875 121.1875 C100.44724609 122.31091797 100.70699219 123.43433594 100.97460938 124.59179688 C102.89369379 133.03676007 104.14078559 141.1812389 104.23828125 149.84765625 C104.24802979 150.57341354 104.25777832 151.29917084 104.26782227 152.04692078 C104.44554179 168.71667859 104.11805765 184.73417985 100 201 C99.81808105 201.71913574 99.63616211 202.43827148 99.44873047 203.17919922 C98.20623353 207.87936861 96.67883445 212.43947152 95 217 C94.72172363 217.76876465 94.44344727 218.5375293 94.15673828 219.32958984 C78.28558671 262.63405696 46.8388756 297.39207874 5.44140625 317.75 C-9.14460415 324.22517687 -24.39374662 328.77652418 -40 332 C-41.13924927 332.26707764 -41.13924927 332.26707764 -42.30151367 332.53955078 C-51.29074274 334.46562973 -60.28730891 334.39503448 -69.4375 334.375 C-70.28282288 334.37512085 -71.12814575 334.3752417 -71.99908447 334.37536621 C-83.99251283 334.35092405 -95.36041552 333.77469921 -106.97949219 330.546875 C-108.98966681 330.0027968 -111.00120218 329.55256467 -113.0390625 329.125 C-154.88104748 320.09472488 -192.21223958 291.5967116 -215.81640625 256.421875 C-223.8834364 243.90619496 -229.91044928 230.98758911 -235 217 C-235.37898438 215.97205322 -235.37898438 215.97205322 -235.765625 214.92333984 C-237.42408974 210.34067927 -238.80489986 205.72429752 -240 201 C-240.19609863 200.22543457 -240.39219727 199.45086914 -240.59423828 198.65283203 C-246.68290189 173.23776439 -246.38010077 144.31161745 -240 119 C-239.78569336 118.14067871 -239.57138672 117.28135742 -239.35058594 116.39599609 C-227.62503995 70.90190174 -197.79350818 32.81942425 -157.625 8.8125 C-149.68788719 4.1844537 -141.56407282 0.31711388 -133 -3 C-132.32984863 -3.26264648 -131.65969727 -3.52529297 -130.96923828 -3.79589844 C-89.31342827 -19.77861141 -40.61605616 -18.59715458 0 0 Z " fill="#010101" transform="translate(320,90)"/>
<path d="M0 0 C0.82971817 -0.00619858 1.65943634 -0.01239716 2.51429749 -0.01878357 C4.26855292 -0.02588515 6.02287571 -0.02270174 7.77709961 -0.01000977 C10.46008613 0.00384136 13.13957473 -0.0301865 15.82226562 -0.06835938 C17.5273446 -0.06931073 19.23242794 -0.06745087 20.9375 -0.0625 C21.73864731 -0.07575821 22.53979462 -0.08901642 23.36521912 -0.10267639 C27.19253502 -0.03878726 29.1244011 0.2035197 32.03442383 2.77441406 C33.62967056 5.74224254 34.06634384 7.52467593 34.14453125 10.8671875 C34.17675781 11.84365234 34.20898438 12.82011719 34.2421875 13.82617188 C34.25636719 14.83357422 34.27054688 15.84097656 34.28515625 16.87890625 C34.31480469 17.90564453 34.34445312 18.93238281 34.375 19.99023438 C34.44547819 22.515703 34.49828285 25.0402604 34.53515625 27.56640625 C42.11222342 30.94823685 42.11222342 30.94823685 49.72265625 34.25390625 C50.68558594 34.67027344 51.64851562 35.08664063 52.640625 35.515625 C55.76701678 36.65057694 58.19536557 37.49646299 61.53515625 37.56640625 C64.47880018 35.65244217 64.47880018 35.65244217 67.09765625 32.87890625 C76.45377726 23.70858055 76.45377726 23.70858055 80.81079102 23.13574219 C85.46579373 23.67401979 87.57375703 25.5725555 90.72265625 28.7890625 C91.27002441 29.32736191 91.81739258 29.86566132 92.38134766 30.42027283 C93.52935919 31.55916908 94.66857136 32.70699611 95.79931641 33.86303711 C97.53232854 35.62602962 99.30171548 37.34532335 101.078125 39.06445312 C102.19121992 40.17857921 103.30198163 41.29504228 104.41015625 42.4140625 C104.94020264 42.92477798 105.47024902 43.43549347 106.01635742 43.96168518 C108.76543845 46.83723297 109.53659683 48.18806398 109.52124023 52.22119141 C108.61750207 55.28705433 107.98282601 56.9153153 105.8828125 59.2421875 C105.35365234 59.84224609 104.82449219 60.44230469 104.27929688 61.06054688 C103.72435547 61.66060547 103.16941406 62.26066406 102.59765625 62.87890625 C102.04658203 63.49830078 101.49550781 64.11769531 100.92773438 64.75585938 C98.84751891 67.08377972 96.74292223 69.35864027 94.53515625 71.56640625 C95.24632117 76.46575252 97.92531882 81.00545874 100.0078125 85.45898438 C102.00922419 89.88470018 103.07946511 93.72468789 103.53515625 98.56640625 C104.63972168 98.57256958 104.63972168 98.57256958 105.76660156 98.57885742 C109.1069332 98.61177617 112.44543676 98.68241939 115.78515625 98.75390625 C117.52345703 98.76260742 117.52345703 98.76260742 119.296875 98.77148438 C120.41191406 98.80048828 121.52695312 98.82949219 122.67578125 98.859375 C123.70219727 98.87508545 124.72861328 98.8907959 125.78613281 98.90698242 C128.53515625 99.56640625 128.53515625 99.56640625 130.86816406 101.61035156 C132.95551314 105.31181943 133.11249923 108.43045766 133.06640625 112.5703125 C133.07023315 113.33061264 133.07406006 114.09091278 133.07800293 114.87425232 C133.08071551 116.47534516 133.07340004 118.07648281 133.05664062 119.67749023 C133.03518881 122.12519103 133.05647643 124.56996714 133.08203125 127.01757812 C133.07938843 128.57682938 133.0742644 130.13607881 133.06640625 131.6953125 C133.07450317 132.42456436 133.0826001 133.15381622 133.09094238 133.90516663 C133.02695945 137.37759509 132.80095474 139.22800288 130.62695312 141.99584961 C123.48735472 147.35638142 112.04523738 145.70007245 103.53515625 145.56640625 C103.365 146.33984375 103.19484375 147.11328125 103.01953125 147.91015625 C101.52537022 154.33186961 99.74734595 159.80661782 96.53515625 165.56640625 C91.60897469 164.61193721 88.29745008 161.76558564 84.34765625 158.81640625 C83.61095703 158.29046875 82.87425781 157.76453125 82.11523438 157.22265625 C76.88485398 153.3347562 76.88485398 153.3347562 75.42578125 150.12890625 C75.57277891 146.6849611 76.4806702 143.59016143 77.47265625 140.31640625 C82.43292099 122.16658538 79.78760342 102.96182618 70.53515625 86.56640625 C59.78536555 69.62936541 45.23071442 59.18124215 25.8359375 53.8203125 C7.26299404 49.79478664 -11.16462594 53.33716724 -27.21875 63.28515625 C-41.85251478 73.56929419 -51.0422416 86.45559022 -56.46484375 103.56640625 C-56.70976562 104.29730469 -56.9546875 105.02820313 -57.20703125 105.78125 C-60.61873192 117.95588048 -58.77191996 130.48637124 -55.15600586 142.32177734 C-54.9266333 143.0792627 -54.69726074 143.83674805 -54.4609375 144.6171875 C-54.13887329 145.61745972 -54.13887329 145.61745972 -53.81030273 146.63793945 C-53.38635871 149.0045358 -53.57134257 150.33363703 -54.46484375 152.56640625 C-55.96777344 154.10620117 -55.96777344 154.10620117 -57.88671875 155.546875 C-58.5828125 156.07087891 -59.27890625 156.59488281 -59.99609375 157.13476562 C-60.72828125 157.66908203 -61.46046875 158.20339844 -62.21484375 158.75390625 C-62.9315625 159.29982422 -63.64828125 159.84574219 -64.38671875 160.40820312 C-70.9187469 165.25319092 -70.9187469 165.25319092 -75.46484375 165.56640625 C-76.25822925 163.5254069 -77.04947405 161.48357535 -77.83984375 159.44140625 C-78.28070313 158.30445313 -78.7215625 157.1675 -79.17578125 155.99609375 C-80.46484375 152.56640625 -80.46484375 152.56640625 -81.37890625 149.19921875 C-81.73726562 148.33039063 -82.095625 147.4615625 -82.46484375 146.56640625 C-85.2414537 145.55525337 -87.90110194 145.43484637 -90.8359375 145.390625 C-91.65771484 145.36677734 -92.47949219 145.34292969 -93.32617188 145.31835938 C-95.03946234 145.27549464 -96.7530821 145.24418723 -98.46679688 145.22460938 C-99.70139648 145.18303711 -99.70139648 145.18303711 -100.9609375 145.140625 C-101.70529053 145.12604248 -102.44964355 145.11145996 -103.21655273 145.09643555 C-106.5913498 144.30083511 -108.13685097 143.1456249 -110.46484375 140.56640625 C-110.96003528 137.51039448 -111.14425971 135.02087528 -111.09375 131.96875 C-111.09736794 130.72273766 -111.09736794 130.72273766 -111.10105896 129.45155334 C-111.10008113 127.6990175 -111.08670245 125.94645052 -111.06176758 124.1940918 C-111.02741136 121.50918996 -111.0411207 118.82757117 -111.06054688 116.14257812 C-111.05364959 114.43878806 -111.04397826 112.73500648 -111.03125 111.03125 C-111.03620987 110.22807846 -111.04116974 109.42490692 -111.04627991 108.59739685 C-110.92892623 103.05699745 -110.92892623 103.05699745 -108.57568359 100.56933594 C-101.04584377 96.99166048 -90.59168789 98.4501239 -82.46484375 98.56640625 C-82.31789062 97.9115625 -82.1709375 97.25671875 -82.01953125 96.58203125 C-80.37635698 89.89601182 -77.96580093 84.28476393 -74.57421875 78.29296875 C-73.22111717 74.9673881 -73.12580989 73.89400531 -74.46484375 70.56640625 C-76.2975517 67.99451106 -78.35324974 65.66154061 -80.46484375 63.31640625 C-81.02429688 62.67960937 -81.58375 62.0428125 -82.16015625 61.38671875 C-84.7516702 58.42001252 -84.7516702 58.42001252 -87.46484375 55.56640625 C-87.96162011 50.68720262 -88.14770889 48.58197788 -85.37280273 44.45507812 C-84.42388887 43.46059528 -83.4517552 42.48789648 -82.4609375 41.53515625 C-81.94483414 41.01377075 -81.42873077 40.49238525 -80.89698792 39.9552002 C-79.80618692 38.86334199 -78.70541928 37.78135991 -77.59545898 36.70898438 C-75.90464299 35.06863686 -74.25763261 33.39191908 -72.61132812 31.70703125 C-71.54274771 30.64733106 -70.47185636 29.58995506 -69.3984375 28.53515625 C-68.90959579 28.03528198 -68.42075409 27.53540771 -67.917099 27.02038574 C-65.15103725 24.40008642 -63.6013271 23.58203349 -59.77392578 23.14379883 C-55.63863999 23.67192187 -53.9914482 24.99754376 -50.90234375 27.75390625 C-49.95875 28.56988281 -49.01515625 29.38585937 -48.04296875 30.2265625 C-46.55971287 31.57272958 -45.08521522 32.92900017 -43.63671875 34.3125 C-42.02913182 35.86991055 -42.02913182 35.86991055 -39.46484375 37.56640625 C-34.80242785 37.23055426 -31.19123531 35.67336201 -27.02734375 33.62890625 C-22.52859256 31.42554676 -18.28953948 29.82900045 -13.46484375 28.56640625 C-13.39753052 27.50728027 -13.39753052 27.50728027 -13.32885742 26.42675781 C-13.11731079 23.22220839 -12.8850617 20.01948485 -12.65234375 16.81640625 C-12.54696289 15.14964844 -12.54696289 15.14964844 -12.43945312 13.44921875 C-12.35888672 12.37929687 -12.27832031 11.309375 -12.1953125 10.20703125 C-12.12723389 9.22250977 -12.05915527 8.23798828 -11.98901367 7.22363281 C-10.57191987 0.03981866 -6.59690706 -0.04073824 0 0 Z " fill="#FCFCFC" transform="translate(239.46484375,112.43359375)"/>
<path d="M0 0 C4.76992165 2.00838806 7.22898341 4.88173916 9.30859375 9.51953125 C11.04659514 15.75473398 10.84569723 22.36894195 8.875 28.5 C5.90393342 32.4614221 2.78937819 35.4035406 -2 37 C-7.51631707 37.48556326 -12.39118901 37.71821919 -17.5 35.4375 C-23.17012658 29.90912659 -24.2683434 26.31382435 -24.5 18.4375 C-24.54759435 12.62504053 -23.63296224 9.56449101 -20 5 C-13.57478293 -0.66031027 -8.41880949 -0.70754915 0 0 Z " fill="#F6F6F6" transform="translate(270,299)"/>
<path d="M0 0 C5.91727464 1.91441238 9.8606656 4.97951717 12.87890625 10.33203125 C16.69987779 16.58453014 22.01145937 21.60666446 27.15600586 26.7668457 C28.9475705 28.57265054 30.71074633 30.40350496 32.47460938 32.23632812 C33.61554602 33.38964701 34.75806958 34.54139865 35.90234375 35.69140625 C36.68544167 36.51458092 36.68544167 36.51458092 37.48435974 37.35438538 C39.15932765 39.07531847 39.15932765 39.07531847 42 41 C45.30076392 40.97982334 45.30076392 40.97982334 48 40 C48.268125 40.53109375 48.53625 41.0621875 48.8125 41.609375 C49.4003125 42.66898438 49.4003125 42.66898438 50 43.75 C50.37125 44.44609375 50.7425 45.1421875 51.125 45.859375 C53.03014092 48.03441088 54.08770555 48.61590051 56.65625 49.76953125 C61.86676646 52.19704979 65.50358406 55.87817751 69.5 59.9375 C70.22703125 60.64068359 70.9540625 61.34386719 71.703125 62.06835938 C72.38890625 62.75607422 73.0746875 63.44378906 73.78125 64.15234375 C74.40064453 64.77101318 75.02003906 65.38968262 75.65820312 66.02709961 C77.37410576 68.55006343 77.38321061 70.00451014 77 73 C74.8386108 76.31927628 72.84977424 78.79694555 69 80 C63.61871026 79.28342231 60.58362665 75.05722692 56.9375 71.375 C56.21755859 70.67503906 55.49761719 69.97507812 54.75585938 69.25390625 C50.55827619 65.05242559 47.97522826 61.6000199 46 56 C43.78993016 53.08672612 41.34657936 52.32101817 38 51 C37.67 50.34 37.34 49.68 37 49 C37.9375 46.875 37.9375 46.875 39 45 C34.82875998 40.75451153 30.64769213 36.51904227 26.45727539 32.29248047 C25.03364161 30.85377577 23.61271399 29.41238794 22.19458008 27.96826172 C20.15373798 25.89096325 18.10330516 23.82356129 16.05078125 21.7578125 C15.4203743 21.11192169 14.78996735 20.46603088 14.14045715 19.80056763 C10.90786424 16.5667544 8.42429111 14.45221785 4 13 C2.19921875 10.8359375 2.19921875 10.8359375 0.6875 8.375 C0.17574219 7.55773437 -0.33601562 6.74046875 -0.86328125 5.8984375 C-1.23839844 5.27195313 -1.61351562 4.64546875 -2 4 C-1.34 2.68 -0.68 1.36 0 0 Z " fill="#F9F9F9" transform="translate(215,199)"/>
<path d="M0 0 C9 0 9 0 11.21508789 2.01953125 C11.71258545 2.94121094 12.21008301 3.86289062 12.72265625 4.8125 C13.28017578 5.80507813 13.83769531 6.79765625 14.41210938 7.8203125 C14.95673828 8.86960937 15.50136719 9.91890625 16.0625 11 C16.64193359 12.04929687 17.22136719 13.09859375 17.81835938 14.1796875 C19.24292915 16.76981436 20.62560064 19.38290569 22 22 C22 14.74 22 7.48 22 0 C24.97 0 27.94 0 31 0 C31 12.21 31 24.42 31 37 C21 37 21 37 18.77905273 35.19580078 C18.33505127 34.37063965 17.8910498 33.54547852 17.43359375 32.6953125 C16.92892578 31.80199219 16.42425781 30.90867187 15.90429688 29.98828125 C15.42025391 29.04339844 14.93621094 28.09851563 14.4375 27.125 C13.91865234 26.18785156 13.39980469 25.25070312 12.86523438 24.28515625 C11.17884688 21.2210012 9.56405159 18.12810317 8 15 C8 22.26 8 29.52 8 37 C5.36 37 2.72 37 0 37 C0 24.79 0 12.58 0 0 Z " fill="#F7F7F7" transform="translate(305,299)"/>
<path d="M0 0 C3.17625 -0.0825 6.3525 -0.165 9.625 -0.25 C10.6145166 -0.28641602 11.6040332 -0.32283203 12.62353516 -0.36035156 C18.25795762 -0.43096692 21.59081997 0.13327429 26 4 C28.97945822 8.46918733 28.48398029 12.76072132 28 18 C26.66722253 21.55407325 25.51643658 22.63471559 22.4375 24.8125 C17.76854293 26.42541244 13.92851899 26.19980482 9 26 C9 29.63 9 33.26 9 37 C6.03 37 3.06 37 0 37 C0 24.79 0 12.58 0 0 Z " fill="#FBFBFB" transform="translate(214,299)"/>
<path d="M0 0 C3.50761015 -0.62388323 6.52443466 -0.87923528 10 0 C12.70699778 3.01364987 14.37748923 6.30647954 16 10 C18.46446554 6.82449818 20.26637814 3.63235056 22 0 C25.3 0 28.6 0 32 0 C30.14010606 5.13595079 27.2846146 9.47266965 24.36328125 14.0625 C22.81900918 16.83182831 22.81900918 16.83182831 23.0390625 19.45703125 C24.30481139 22.80663502 26.10907039 25.7084355 28.0625 28.6875 C32 34.75192308 32 34.75192308 32 37 C28.7 37 25.4 37 22 37 C20.02 33.37 18.04 29.74 16 26 C13.03 31.445 13.03 31.445 10 37 C6.7 37 3.4 37 0 37 C1.85989394 31.86404921 4.7153854 27.52733035 7.63671875 22.9375 C9.18099082 20.16817169 9.18099082 20.16817169 8.9609375 17.54296875 C7.69518861 14.19336498 5.89092961 11.2915645 3.9375 8.3125 C0 2.24807692 0 2.24807692 0 0 Z " fill="#F6F6F6" transform="translate(177,299)"/>
<path d="M0 0 C3.81684226 1.55500981 6.19195732 4.03595495 9 7 C7.44416008 10.79345238 5.03445734 13.0346099 2.125 15.875 C-2.85532269 21.1840097 -4.59059947 25.7028123 -5.98828125 32.93359375 C-7.23290122 36.70589752 -8.69195474 37.88542616 -12 40 C-16.46411266 41.6233137 -20.26178489 42.23113244 -25 42 C-25.495 40.515 -25.495 40.515 -26 39 C-24.54462432 38.16151196 -23.08559627 37.32936066 -21.625 36.5 C-20.81289062 36.0359375 -20.00078125 35.571875 -19.1640625 35.09375 C-17 34 -17 34 -15 34 C-16.34773523 27.10740765 -16.34773523 27.10740765 -21 22 C-23.74676963 23.02022872 -26.17374222 24.10505344 -28.6875 25.625 C-31 27 -31 27 -33 27 C-32.57963821 22.23589976 -30.4094261 19.1974888 -27 16 C-23.49750281 13.74283514 -21.43950801 13.01465027 -17.25 12.875 C-11.08686459 12.35249912 -7.12001575 7.17124152 -3 3 C-2.40832031 2.40960938 -1.81664062 1.81921875 -1.20703125 1.2109375 C-0.80871094 0.81132812 -0.41039062 0.41171875 0 0 Z " fill="#F6F6F6" transform="translate(241,235)"/>
<path d="M0 0 C1.21236328 0.01353516 1.21236328 0.01353516 2.44921875 0.02734375 C3.37154297 0.04474609 3.37154297 0.04474609 4.3125 0.0625 C4.3125 1.0525 4.3125 2.0425 4.3125 3.0625 C2.6328125 4.44921875 2.6328125 4.44921875 0.4375 5.75 C-0.28179687 6.18699219 -1.00109375 6.62398437 -1.7421875 7.07421875 C-3.6875 8.0625 -3.6875 8.0625 -5.6875 8.0625 C-5.23667531 9.52317199 -4.77656463 10.98098032 -4.3125 12.4375 C-4.05726563 13.24960938 -3.80203125 14.06171875 -3.5390625 14.8984375 C-2.78895717 17.22709185 -2.78895717 17.22709185 -0.6875 19.0625 C3.76231551 18.76584563 6.59981715 17.43449182 10.3125 15.0625 C10.9725 15.0625 11.6325 15.0625 12.3125 15.0625 C11.033914 20.06060891 9.27064465 22.74870448 5.3125 26.0625 C2.95154705 27.27670438 0.71794079 27.97634383 -1.875 28.52734375 C-9.61548475 30.37780339 -14.16789313 34.46068622 -19.6875 40.0625 C-23.45238042 38.34095212 -25.83813897 36.07015886 -28.6875 33.0625 C-27.22939378 29.66784645 -25.34983272 27.53998287 -22.6875 25 C-18.56135164 21.04830277 -16.6113214 18.4900698 -16 12.75 C-15.1422211 7.52723329 -13.63776076 5.22187413 -9.44140625 2.0859375 C-6.24269354 0.21942808 -3.61540434 -0.05239716 0 0 Z " fill="#F6F6F6" transform="translate(277.6875,195.9375)"/>
<path d="M0 0 C9.57 0 19.14 0 29 0 C29 2.31 29 4.62 29 7 C25.7 7 22.4 7 19 7 C19 16.9 19 26.8 19 37 C15.7 37 12.4 37 9 37 C9 27.43 9 17.86 9 8 C6.03 8 3.06 8 0 8 C0 5.36 0 2.72 0 0 Z " fill="#EFEFEF" transform="translate(341,299)"/>
<path d="M0 0 C7.59 0 15.18 0 23 0 C23 2.31 23 4.62 23 7 C18.38 7 13.76 7 9 7 C9 9.97 9 12.94 9 16 C12.63 16 16.26 16 20 16 C20 18.31 20 20.62 20 23 C16.37 23 12.74 23 9 23 C9 27.62 9 32.24 9 37 C6.03 37 3.06 37 0 37 C0 24.79 0 12.58 0 0 Z " fill="#F9F9F9" transform="translate(134,299)"/>
<path d="M0 0 C3.3 0 6.6 0 10 0 C10 12.21 10 24.42 10 37 C6.7 37 3.4 37 0 37 C0 24.79 0 12.58 0 0 Z " fill="#EDEDED" transform="translate(162,299)"/>
<path d="M0 0 C2.97 0 5.94 0 9 0 C9 12.21 9 24.42 9 37 C6.03 37 3.06 37 0 37 C0 24.79 0 12.58 0 0 Z " fill="#FDFDFD" transform="translate(287,299)"/>
<path d="M0 0 C3.64169341 0.77482838 4.67791366 1.69041012 6.9375 4.625 C7.43359375 7.90234375 7.43359375 7.90234375 7.375 11.5625 C7.37371094 12.76777344 7.37242187 13.97304688 7.37109375 15.21484375 C6.90884772 18.85034628 6.25982785 20.80239744 3.9375 23.625 C1.21452426 24.50886914 -1.28664522 24.26246143 -4.0625 23.625 C-7.57027573 20.34353238 -8.25145853 16.47069212 -8.4375 11.8125 C-8.39547476 8.22459545 -8.10047554 5.90476523 -5.9375 3 C-3.0625 0.625 -3.0625 0.625 0 0 Z " fill="#080808" transform="translate(263.0625,305.375)"/>
<path d="M0 0 C6 0 6 0 8.4375 0.9375 C10.71899959 3.94907945 10.08787035 6.30804053 9.65234375 9.94140625 C9 12 9 12 6 14 C4.02 14 2.04 14 0 14 C0 9.38 0 4.76 0 0 Z " fill="#141414" transform="translate(223,305)"/>
<path d="M0 0 C0.99 0 1.98 0 3 0 C3.33 0.99 3.66 1.98 4 3 C4.33 2.01 4.66 1.02 5 0 C5.99 0 6.98 0 8 0 C8.33 0.99 8.66 1.98 9 3 C9.66 2.01 10.32 1.02 11 0 C11.66 0 12.32 0 13 0 C12.34 3.3 11.68 6.6 11 10 C10.01 10 9.02 10 8 10 C7.34 9.01 6.68 8.02 6 7 C5.67 7.99 5.34 8.98 5 10 C4.01 10 3.02 10 2 10 C1.34 6.7 0.68 3.4 0 0 Z " fill="#D0D0D0" transform="translate(158,354)"/>
<path d="M0 0 C1.32 0 2.64 0 4 0 C4.33 0.99 4.66 1.98 5 3 C5.66 2.01 6.32 1.02 7 0 C7.99 0 8.98 0 10 0 C10.33 3.3 10.66 6.6 11 10 C10.34 10 9.68 10 9 10 C8.34 9.34 7.68 8.68 7 8 C6.67 8.66 6.34 9.32 6 10 C5.34 10 4.68 10 4 10 C3.67 9.01 3.34 8.02 3 7 C2.67 7.99 2.34 8.98 2 10 C1.34 10 0.68 10 0 10 C0 6.7 0 3.4 0 0 Z " fill="#DBDBDB" transform="translate(268,354)"/>
<path d="M0 0 C0.99 0 1.98 0 3 0 C3 0.99 3 1.98 3 3 C4.32 3.33 5.64 3.66 7 4 C7 6.31 7 8.62 7 11 C6.34 11 5.68 11 5 11 C5 9.02 5 7.04 5 5 C4.34 5 3.68 5 3 5 C3 6.98 3 8.96 3 11 C2.01 11 1.02 11 0 11 C0 7.37 0 3.74 0 0 Z " fill="#CECECE" transform="translate(172,353)"/>
<path d="M0 0 C1.67542976 0.28604898 3.34385343 0.61781233 5 1 C5 3.31 5 5.62 5 8 C2.625 8.125 2.625 8.125 0 8 C-0.66 7.34 -1.32 6.68 -2 6 C-1.44444444 1.44444444 -1.44444444 1.44444444 0 0 Z " fill="#BBBBBB" transform="translate(250,356)"/>
<path d="M0 0 C0.99 0 1.98 0 3 0 C3 1.98 3 3.96 3 6 C3.66 6 4.32 6 5 6 C5 4.02 5 2.04 5 0 C5.66 0 6.32 0 7 0 C7 2.64 7 5.28 7 8 C5.00045254 8.04254356 2.99958364 8.04080783 1 8 C0 7 0 7 -0.0625 3.4375 C-0.041875 2.303125 -0.02125 1.16875 0 0 Z " fill="#CACACA" transform="translate(321,356)"/>
<path d="M0 0 C1.98 0 3.96 0 6 0 C6 0.66 6 1.32 6 2 C4.68 2 3.36 2 2 2 C2 2.66 2 3.32 2 4 C3.32 4.66 4.64 5.32 6 6 C5.67 7.32 5.34 8.64 5 10 C3.35 10 1.7 10 0 10 C0 9.34 0 8.68 0 8 C0.99 7.67 1.98 7.34 3 7 C1.68 6.01 0.36 5.02 -1 4 C-0.67 2.68 -0.34 1.36 0 0 Z " fill="#CECECE" transform="translate(208,354)"/>
<path d="M0 0 C2.125 0.375 2.125 0.375 4 1 C4.93423645 4.01031744 5.04449911 4.86650268 4 8 C2.33388095 8.042721 0.66617115 8.04063832 -1 8 C-2 7 -2 7 -2.1875 4.5625 C-2 2 -2 2 0 0 Z " fill="#C3C3C3" transform="translate(290,356)"/>
<path d="M0 0 C2.125 0.375 2.125 0.375 4 1 C4.93423645 4.01031744 5.04449911 4.86650268 4 8 C2.35 8 0.7 8 -1 8 C-1.625 5.125 -1.625 5.125 -2 2 C-1.34 1.34 -0.68 0.68 0 0 Z " fill="#C2C2C2" transform="translate(282,356)"/>
<path d="M0 0 C2.125 0.375 2.125 0.375 4 1 C4.93423645 4.01031744 5.04449911 4.86650268 4 8 C2.35 8 0.7 8 -1 8 C-1.625 5.125 -1.625 5.125 -2 2 C-1.34 1.34 -0.68 0.68 0 0 Z " fill="#C2C2C2" transform="translate(217,356)"/>
<path d="M0 0 C2.125 0.375 2.125 0.375 4 1 C4 3.31 4 5.62 4 8 C2.33388095 8.042721 0.66617115 8.04063832 -1 8 C-2 7 -2 7 -2.1875 4.5625 C-2 2 -2 2 0 0 Z " fill="#C9C9C9" transform="translate(197,356)"/>
<path d="M0 0 C2.125 0.375 2.125 0.375 4 1 C4 3.31 4 5.62 4 8 C2.33388095 8.042721 0.66617115 8.04063832 -1 8 C-2 7 -2 7 -2.1875 4.5625 C-2 2 -2 2 0 0 Z " fill="#C9C9C9" transform="translate(183,356)"/>
<path d="M0 0 C1.32 0 2.64 0 4 0 C4.66 2.31 5.32 4.62 6 7 C5.01 7 4.02 7 3 7 C2.67 7.99 2.34 8.98 2 10 C1.34 10 0.68 10 0 10 C0 6.7 0 3.4 0 0 Z " fill="#D1D1D1" transform="translate(268,354)"/>
<path d="M0 0 C1.32 0 2.64 0 4 0 C3.67 0.99 3.34 1.98 3 3 C3.66 3.33 4.32 3.66 5 4 C4.67 5.32 4.34 6.64 4 8 C2.35 8 0.7 8 -1 8 C-1 4.88742431 -0.82638376 2.89234315 0 0 Z " fill="#C7C7C7" transform="translate(257,356)"/>
<path d="M0 0 C2.125 0.375 2.125 0.375 4 1 C4 1.66 4 2.32 4 3 C3.34 3 2.68 3 2 3 C2 4.32 2 5.64 2 7 C2.66 7 3.32 7 4 7 C4 7.66 4 8.32 4 9 C2.35 8.67 0.7 8.34 -1 8 C-1.625 5.125 -1.625 5.125 -2 2 C-1.34 1.34 -0.68 0.68 0 0 Z " fill="#BEBEBE" transform="translate(338,355)"/>
<path d="M0 0 C2.64 0 5.28 0 8 0 C8 0.66 8 1.32 8 2 C7.01 2 6.02 2 5 2 C5 4.64 5 7.28 5 10 C4.34 10 3.68 10 3 10 C3 7.36 3 4.72 3 2 C2.01 2 1.02 2 0 2 C0 1.34 0 0.68 0 0 Z " fill="#E8E8E8" transform="translate(306,354)"/>
<path d="M0 0 C0.66 0 1.32 0 2 0 C2.66 0.66 3.32 1.32 4 2 C4.33 1.34 4.66 0.68 5 0 C5.66 0 6.32 0 7 0 C6.34 2.64 5.68 5.28 5 8 C4.01 8 3.02 8 2 8 C0.74335022 5.09399739 0 3.20395416 0 0 Z " fill="#D7D7D7" transform="translate(229,356)"/>
<path d="M0 0 C0.99 0 1.98 0 3 0 C3 3.63 3 7.26 3 11 C2.01 11 1.02 11 0 11 C0 7.37 0 3.74 0 0 Z " fill="#AEAEAE" transform="translate(237,353)"/>
<path d="M0 0 C1.32 0 2.64 0 4 0 C4 0.66 4 1.32 4 2 C3.01 2.495 3.01 2.495 2 3 C2.66 3.33 3.32 3.66 4 4 C4 5.32 4 6.64 4 8 C2.35 8 0.7 8 -1 8 C-1 4.88742431 -0.82638376 2.89234315 0 0 Z " fill="#D6D6D6" transform="translate(331,356)"/>
<path d="M0 0 C1.32 0 2.64 0 4 0 C4 0.66 4 1.32 4 2 C3.01 2 2.02 2 1 2 C1 3.32 1 4.64 1 6 C1.99 6 2.98 6 4 6 C4 6.66 4 7.32 4 8 C2.35 7.67 0.7 7.34 -1 7 C-1.625 4.625 -1.625 4.625 -2 2 C-1.34 1.34 -0.68 0.68 0 0 Z " fill="#C9C9C9" transform="translate(243,356)"/>
<path d="M0 0 C2.0625 0.4375 2.0625 0.4375 4 1 C4 1.66 4 2.32 4 3 C3.34 3 2.68 3 2 3 C2 4.32 2 5.64 2 7 C2.66 7 3.32 7 4 7 C4 7.66 4 8.32 4 9 C2.68 9 1.36 9 0 9 C-0.87890625 2.84765625 -0.87890625 2.84765625 -1 1 C-0.67 0.67 -0.34 0.34 0 0 Z " fill="#D5D5D5" transform="translate(297,355)"/>
<path d="M0 0 C1.65 0 3.3 0 5 0 C5 0.66 5 1.32 5 2 C4.34 2 3.68 2 3 2 C3 3.98 3 5.96 3 8 C2.01 8 1.02 8 0 8 C0 5.36 0 2.72 0 0 Z " fill="#BFBFBF" transform="translate(223,356)"/>
<path d="M0 0 C1.65 0 3.3 0 5 0 C5 0.66 5 1.32 5 2 C4.01 2.495 4.01 2.495 3 3 C2.34444881 5.52733235 2.34444881 5.52733235 2 8 C1.34 8 0.68 8 0 8 C0 5.36 0 2.72 0 0 Z " fill="#E0E0E0" transform="translate(315,356)"/>
<path d="M0 0 C1.65 0 3.3 0 5 0 C5 0.66 5 1.32 5 2 C4.01 2.495 4.01 2.495 3 3 C2.34444881 5.52733235 2.34444881 5.52733235 2 8 C1.34 8 0.68 8 0 8 C0 5.36 0 2.72 0 0 Z " fill="#E0E0E0" transform="translate(189,356)"/>
<path d="M0 0 C1.32 0 2.64 0 4 0 C4.33 1.65 4.66 3.3 5 5 C4.01 5.495 4.01 5.495 3 6 C3 5.34 3 4.68 3 4 C2.01 4 1.02 4 0 4 C0 2.68 0 1.36 0 0 Z " fill="#0D0D0D" transform="translate(244,358)"/>
<path d="M0 0 C1.32 0 2.64 0 4 0 C3.34 1.65 2.68 3.3 2 5 C1.01 4.67 0.02 4.34 -1 4 C-0.67 2.68 -0.34 1.36 0 0 Z " fill="#C1C1C1" transform="translate(257,356)"/>
</svg>
